# xmcd
#
# Track frame offsets:
#	150
#	18118
#	41465
#	67263
#	88595
#	105782
#	128082
#	153847
#	179936
#	197138
#
# Disc length: 2915 seconds
#
# Revision: 0
# Processed by: cddbd v1.5.2PL0 Copyright (c) Steve Scherf et al.
# Submitted via: EasyCDDAExtractor 10.0.2.1
#
DISCID=7d0b610a
DTITLE=Vesta - Distant Lover
DYEAR=2007
DGENRE=Soul
TTITLE0=Use Me
TTITLE1=Whip Appeal
TTITLE2=Distant Lover
TTITLE3=If You Want Me To Stay
TTITLE4=With You I'm Born Again
TTITLE5=Knock Me Off My Feet
TTITLE6=No Ordinary Love
TTITLE7=Free
TTITLE8=Ooh Baby Baby
TTITLE9=Could It Be I'm Falling in Love
EXTD=
EXTT0=
EXTT1=
EXTT2=
EXTT3=
EXTT4=
EXTT5=
EXTT6=
EXTT7=
EXTT8=
EXTT9=
PLAYORDER=
